<?xml version="1.0" encoding="UTF-8" standalone="no"?>
<svg
   id="svg2"
   style="image-rendering:optimizeQuality;shape-rendering:geometricPrecision;text-rendering:geometricPrecision"
   fill-rule="evenodd"
   xml:space="preserve"
   viewBox="0 0 309.36865 150.57443"
   version="1.0"
   sodipodi:docname="Score Editor - Logo.svg"
   width="309.36865"
   height="150.57443"
   inkscape:version="1.3 (0e150ed6c4, 2023-07-21)"
   xmlns:inkscape="http://www.inkscape.org/namespaces/inkscape"
   xmlns:sodipodi="http://sodipodi.sourceforge.net/DTD/sodipodi-0.dtd"
   xmlns:xlink="http://www.w3.org/1999/xlink"
   xmlns="http://www.w3.org/2000/svg"
   xmlns:svg="http://www.w3.org/2000/svg"
   xmlns:rdf="http://www.w3.org/1999/02/22-rdf-syntax-ns#"
   xmlns:cc="http://creativecommons.org/ns#"
   xmlns:dc="http://purl.org/dc/elements/1.1/"><sodipodi:namedview
   id="namedview1"
   pagecolor="#505050"
   bordercolor="#eeeeee"
   borderopacity="1"
   inkscape:showpageshadow="0"
   inkscape:pageopacity="0"
   inkscape:pagecheckerboard="0"
   inkscape:deskcolor="#505050"
   inkscape:zoom="2.6433504"
   inkscape:cx="367.526"
   inkscape:cy="169.48188"
   inkscape:window-width="2558"
   inkscape:window-height="1360"
   inkscape:window-x="2546"
   inkscape:window-y="0"
   inkscape:window-maximized="0"
   inkscape:current-layer="layer1" />&#10;  <defs
   id="defs4"><linearGradient
     id="linearGradient3"
     inkscape:collect="always"><stop
       style="stop-color:#000000;stop-opacity:1;"
       offset="0"
       id="stop3" /><stop
       style="stop-color:#3b0764;stop-opacity:1;"
       offset="1"
       id="stop4" /></linearGradient><linearGradient
     id="linearGradient10"
     inkscape:collect="always"><stop
       style="stop-color:#787878;stop-opacity:0.33000001;"
       offset="0"
       id="stop10" /><stop
       style="stop-color:#2e1065;stop-opacity:0.33000001;"
       offset="1"
       id="stop11" /></linearGradient><linearGradient
     id="linearGradient6"
     inkscape:collect="always"><stop
       style="stop-color:#3b0764;stop-opacity:1;"
       offset="0"
       id="stop6" /><stop
       style="stop-color:#000000;stop-opacity:1;"
       offset="1"
       id="stop7" /></linearGradient><style
     id="style6"
     type="text/css">&#10;    .str0 {stroke:#131516;stroke-width:3}&#10;    .str1 {stroke:#131516;stroke-width:42}&#10;    .fil1 {fill:none}&#10;    .fil0 {fill:#131516}&#10;  </style><linearGradient
     inkscape:collect="always"
     xlink:href="#linearGradient6"
     id="linearGradient7"
     x1="2433.0854"
     y1="6299.4985"
     x2="2680.0662"
     y2="6299.4985"
     gradientUnits="userSpaceOnUse"
     spreadMethod="reflect"
     gradientTransform="translate(1167.3794,368.528)" /><linearGradient
     inkscape:collect="always"
     xlink:href="#linearGradient10"
     id="linearGradient11"
     x1="2499.3496"
     y1="6327.3462"
     x2="3928.6797"
     y2="6327.3462"
     gradientUnits="userSpaceOnUse"
     gradientTransform="translate(1338.3516,396.37545)" /><linearGradient
     inkscape:collect="always"
     xlink:href="#linearGradient3"
     id="linearGradient4"
     x1="2435.8628"
     y1="6299.4985"
     x2="2682.8433"
     y2="6299.4985"
     gradientUnits="userSpaceOnUse"
     gradientTransform="translate(1338.3516,396.37545)" /></defs>&#10;  <g
   inkscape:groupmode="layer"
   id="layer1"
   inkscape:label="Background"
   style="opacity:1;mix-blend-mode:normal"
   transform="translate(-289.07056,-85.403055)"><path
     id="rect9"
     style="display:inline;opacity:1;fill:url(#linearGradient11);stroke:#000000;stroke-width:0;stroke-opacity:0;image-rendering:optimizeQuality;shape-rendering:geometricPrecision;text-rendering:geometricPrecision"
     d="m 2499.3496,5977.9219 h 1429.3301 v 698.849 H 2499.3496 Z"
     transform="matrix(0.21599,0,0,0.21546,-250.44,-1202.6)"
     inkscape:label="rect9" /></g><g
   id="Layer 1"
   transform="matrix(0.21599,0,0,0.21546,-539.51056,-1288.0031)">&#10;    &#10;  <g
   id="g9"
   transform="translate(170.97217,27.847454)"><path
     id="path9"
     style="mix-blend-mode:screen;fill:url(#linearGradient7);fill-opacity:1;fill-rule:evenodd;stroke:url(#linearGradient4);stroke-opacity:0;image-rendering:optimizeQuality;shape-rendering:geometricPrecision;text-rendering:geometricPrecision"
     class="fil0 str0"
     d="m 2569.1384,5951.576 c -2.8903,0 -8.1611,2.9085 -15.472,8.385 -8.161,6.1609 -15.4658,15.2332 -21.7566,27.2129 -6.4608,11.9797 -11.3935,25.8381 -14.7938,41.9252 -3.5705,16.087 -5.4365,33.3683 -5.6065,51.8513 0.85,28.7512 5.0993,56.9962 12.7502,84.7206 -17.3421,17.6274 -31.1182,32.171 -41.6596,43.4662 -10.3712,11.4663 -20.4028,24.3021 -30.094,38.3355 -9.6912,14.0334 -17.5077,29.0913 -23.6285,45.0073 -1.8515,4.7629 -3.3611,9.6531 -4.6931,14.5945 -6.2729,4.3401 -10.3641,7.0111 -17.8412,12.2739 -26.1397,18.5866 -45.7435,38.09 -58.8135,58.5049 -12.7659,20.4147 -19.1523,39.6031 -19.1523,57.5803 0,18.2819 6.6828,33.2202 20.0566,44.7987 13.6778,11.8833 32.9853,17.8216 57.9092,17.8216 24.3161,0 49.8437,-3.9618 76.5914,-11.884 8.3886,-2.389 16.8565,-5.1882 25.3647,-8.1766 14.6298,5.8583 30.0307,8.7295 46.217,8.7295 11.0514,0 21.5928,-1.3671 31.794,-3.9342 1.3602,7.0167 3.7415,17.2804 6.9719,30.4581 3.2304,13.3488 5.6135,24.137 7.1437,32.1805 1.5302,8.2146 2.3782,16.4237 2.3782,24.6384 0,12.1509 -1.3596,21.9095 -4.25,28.9261 -1.5301,6.1611 -5.2676,11.9826 -10.8783,17.459 -5.6107,5.4764 -12.2465,9.7475 -20.2375,12.9991 -7.821,3.0805 -15.6339,4.7953 -23.2849,4.7953 -15.1319,0 -26.0132,-5.3052 -32.644,-15.5735 h 3.9064 c 10.3714,0 19.0431,-3.5892 25.844,-10.6059 6.8008,-7.0167 10.2001,-15.5747 10.2001,-25.6719 0,-7.53 -1.8715,-14.5534 -5.2719,-20.8855 -3.5705,-6.3322 -8.3258,-11.2918 -14.1065,-15.0568 -5.9507,-3.5939 -12.2412,-5.4752 -18.8721,-5.4752 -7.9909,0.5134 -14.9631,2.9122 -20.7438,7.5329 -5.9507,4.4497 -10.5433,10.2621 -13.9438,17.45 -3.4003,7.1878 -5.2682,14.7185 -5.7783,22.762 0.6801,18.1407 8.1585,32.348 22.1003,42.9585 13.9417,10.4394 30.2637,15.7458 48.966,15.7458 13.2617,0 25.4991,-2.9107 36.5505,-8.7295 11.2213,-5.8187 20.0631,-14.0369 26.6939,-24.6475 6.4608,-10.6106 9.6937,-22.5855 9.6937,-36.1055 0,-8.7281 -0.6779,-17.6269 -2.3782,-26.8684 -1.7002,-9.2415 -4.2497,-21.7386 -7.6501,-37.4834 -3.5705,-15.5736 -5.9553,-27.7197 -7.3155,-36.1055 21.2527,-7.8724 37.0683,-20.0219 47.6096,-36.6223 8.0755,-12.7171 13.0314,-26.5495 14.9204,-41.3994 24.5874,-15.8037 48.9935,-32.3282 73.128,-49.9476 l 7.2975,0.9065 c 2.4316,0.3046 4.7085,0.7684 6.8362,1.3778 5.4711,0.6095 10.1823,1.3704 14.1337,2.2844 3.9514,0.6094 6.2283,1.0641 6.8363,1.3688 1.2158,0.3047 3.65,2.7449 7.2974,7.3154 3.6474,4.2657 7.7478,9.4432 12.3071,15.5372 4.5593,6.094 8.8169,12.19 12.7682,18.2839 3.9514,6.3988 6.8392,11.7339 8.6629,15.9996 0.3039,0.6094 0.4612,1.3703 0.4612,2.2844 0,0.9141 0.1482,1.8235 0.4521,2.7376 1.2158,4.5705 4.409,6.853 9.5762,6.853 4.8632,0 9.5744,-1.9764 14.1337,-5.9375 4.8632,-3.961 6.6866,-8.5353 5.4708,-13.7152 0,-0.6094 -0.1573,-1.5188 -0.4612,-2.7376 -0.3039,-1.2188 -0.7575,-2.7406 -1.3655,-4.5687 l -0.9133,-5.4843 v -5.9466 c 0.608,-5.1798 1.6724,-10.6635 3.1921,-16.4528 1.5198,-5.7892 3.195,-11.8851 5.0187,-18.2839 12.7659,-1.8281 25.2243,-4.4169 37.3823,-7.7686 12.462,-3.3516 22.6434,-7.9168 30.5462,-13.7062 8.2066,-5.7892 12.3161,-13.1099 12.3161,-21.9461 0,-2.7423 -0.759,-5.0249 -2.2788,-6.8531 -1.5198,-1.8282 -3.3431,-2.7376 -5.4708,-2.7376 -3.3434,0 -5.0187,2.2826 -5.0187,6.8531 0.9118,10.3598 -4.8637,18.2836 -17.3257,23.7682 -12.1581,5.1798 -27.6615,8.8356 -46.5064,10.9685 6.9909,-20.7195 16.5705,-43.7303 28.7285,-69.0202 12.158,-25.5947 25.2273,-50.2666 39.209,-74.0331 20.6687,-18.2819 39.8189,-36.1151 57.448,-53.4829 6.0791,-6.094 11.5493,-12.4871 16.4125,-19.1904 4.8632,-7.0081 7.2884,-14.7834 7.2884,-23.315 0,-3.9611 -1.3608,-7.4593 -4.0964,-10.5062 -2.4315,-3.3517 -6.3837,-4.7249 -11.8549,-4.1155 -8.2067,0.914 -16.2593,4.7185 -24.162,11.4218 -7.5987,6.3988 -14.596,13.8678 -20.979,22.3994 -6.383,8.2269 -12.1586,16.7631 -17.3257,25.5993 -5.1672,8.5316 -9.4157,15.3793 -12.7592,20.5592 -3.9513,6.3987 -7.9036,12.9494 -11.8549,19.6527 -3.6475,6.7033 -7.1461,13.5602 -10.4895,20.5683 -21.2766,19.8054 -43.1573,39.6151 -65.6498,59.4205 -22.1884,19.8054 -44.9854,38.8451 -68.3896,57.127 -8.5107,-4.5705 -17.933,-8.9871 -28.2674,-13.2529 -10.0304,-4.2657 -20.0636,-7.6154 -30.094,-10.053 -9.7264,-2.7422 -18.538,-4.1154 -26.4407,-4.1154 -4.2553,0 -8.3648,0.6123 -12.3162,1.8311 -3.6474,1.2188 -6.6833,3.1952 -9.115,5.9375 -1.8236,2.7423 -2.7399,5.331 -2.7399,7.7686 0,3.3516 1.3699,6.5527 4.1054,9.5998 2.7355,3.047 6.077,5.7933 10.0283,8.2309 6.9909,4.2657 16.4132,7.9215 28.2674,10.9685 11.8541,2.7423 23.4053,5.1825 34.6515,7.3154 -18.9645,13.7303 -38.0366,26.5496 -57.2039,38.6528 2e-4,-0.1008 0.01,-0.1983 0.01,-0.2992 0,-13.0066 -2.2023,-25.5037 -6.1128,-37.4834 -4.0805,-11.9796 -9.8631,-22.5944 -17.3439,-31.8359 -7.481,-9.4126 -16.6609,-16.7689 -27.3721,-22.2453 -10.7114,-5.4764 -22.2725,-8.2128 -35.1941,-8.2128 -2.8904,0 -7.9911,0.6853 -15.472,1.541 l -13.7719,-67.4338 c 13.4317,-12.4931 24.9891,-27.0391 34.8504,-43.8107 9.6911,-16.6004 16.9978,-34.3938 21.9285,-53.0479 5.1005,-18.8252 7.6591,-37.6523 7.6591,-56.991 0,-40.731 -10.205,-75.6414 -30.4376,-104.5637 -2.7203,-3.4228 -4.9281,-5.9928 -6.6283,-7.533 -1.7002,-1.5403 -3.577,-2.3931 -5.7873,-2.3931 z m 7.3155,60.2363 c 5.1006,0 9.1762,1.7148 12.4066,4.7953 3.2303,3.2517 5.1072,8.0438 5.7873,14.2047 0.8501,3.765 1.1846,8.0409 1.1846,12.3193 0,9.926 -1.8678,20.713 -5.7783,32.0081 -3.9105,11.4663 -9.1847,22.7606 -15.8156,33.8847 -6.4607,10.9528 -13.2577,20.7023 -20.2285,28.917 -6.9709,8.3858 -13.4332,14.3807 -19.0438,17.8035 -4.2505,-10.9529 -6.9718,-24.8193 -7.8219,-41.762 0.34,-14.8891 2.555,-29.6015 6.4655,-44.4906 3.7404,-14.7179 9.0094,-27.7272 15.3002,-38.68 8.161,-12.6642 17.3427,-19 27.5439,-19 z m 997.5144,52.5039 c -14.8936,0 -29.9345,4.2681 -45.132,12.7997 -14.8935,8.5316 -29.4898,19.8051 -43.7755,33.8212 -14.2857,13.7114 -27.8085,28.6407 -40.5744,44.7897 -12.766,15.8443 -24.16,31.3858 -34.1903,46.6208 -10.0304,15.2349 -18.3975,28.4848 -25.0844,39.7587 -8.8147,14.9302 -15.6456,28.7924 -20.5088,41.5898 -4.3446,11.4326 -7.3711,20.3887 -9.7751,28.1737 -0.3768,0.071 -0.8399,0.051 -1.1755,0.1632 l -20.0567,16.4528 c -6.383,5.4845 -12.7694,10.8197 -19.1523,15.9995 -6.383,4.8752 -12.9176,9.598 -19.6045,14.1685 -6.3831,4.5705 -13.223,8.6809 -20.5178,12.3373 -8.8146,4.5705 -18.5334,8.6901 -29.1716,12.3464 -10.3344,3.3518 -20.8213,5.022 -31.4595,5.022 -6.6869,0 -11.3981,-0.9095 -14.1337,-2.7376 -2.4316,-2.1329 -3.6532,-4.7217 -3.6532,-7.7686 0,-7.0081 5.3221,-17.3722 15.9603,-31.0836 2.7355,-3.6564 6.6878,-8.073 11.8549,-13.2529 5.4712,-5.4845 11.0896,-10.9682 16.8646,-16.4528 5.7751,-5.7893 11.0971,-10.8183 15.9603,-15.084 5.1672,-4.5705 8.9712,-7.7716 11.4028,-9.5997 1.2158,-0.9142 2.5766,-2.2874 4.0963,-4.1155 1.5198,-1.8282 2.2788,-3.8046 2.2788,-5.9375 0,-3.6564 -1.9716,-6.2452 -5.923,-7.7687 -3.9513,-1.8281 -7.9036,-2.7466 -11.8549,-2.7466 -1.8237,0 -3.6471,0.3061 -5.4708,0.9155 -7.5988,3.3516 -13.0691,7.4622 -16.4124,12.3374 -2.1277,2.4376 -3.1921,4.8778 -3.1921,7.3154 0,0.9141 0.1482,1.5264 0.4521,1.8311 -2.0286,1.8302 -5.2343,4.6798 -8.2107,7.3244 -0.7566,0.607 -1.3627,1.0553 -2.2697,1.813 -1.5197,1.2188 -3.3431,2.5919 -5.4708,4.1155 -3.9514,3.0469 -7.9035,6.248 -11.855,9.5997 -3.6474,3.3517 -6.387,5.9405 -8.2107,7.7686 -13.0699,12.188 -30.8503,24.38 -53.3427,36.5679 -22.4923,12.1879 -48.1771,23.6099 -77.0525,34.2744 5.1671,-12.4926 8.9712,-23.9146 11.4028,-34.2744 2.4316,-10.6644 3.6442,-19.813 3.6442,-27.4304 0,-8.5316 -1.518,-15.3885 -4.5575,-20.5683 -3.0396,-5.1799 -7.899,-7.7686 -14.5858,-7.7686 -4.8633,0 -8.6673,0.7607 -11.4028,2.2843 -2.7356,1.5235 -4.8643,3.509 -6.3842,5.9466 -0.6079,1.2188 -0.9133,2.5919 -0.9133,4.1155 0,1.2188 0.1573,2.1281 0.4612,2.7376 l -25.5365,21.937 c -8.2067,7.3128 -16.2592,14.3273 -24.162,21.0306 -2.7355,2.1329 -6.9931,5.4825 -12.7682,10.053 -5.4712,4.2657 -11.3949,8.2277 -17.7779,11.8841 -6.079,3.6564 -11.401,5.4843 -15.9603,5.4843 -1.8237,0 -3.647,-0.6124 -5.4708,-1.8311 -1.5197,-1.5235 -2.2788,-4.567 -2.2788,-9.1375 v -2.2843 c 0,-0.9142 0.1573,-1.9811 0.4612,-3.1999 1.2158,-7.9223 5.3162,-17.0616 12.3071,-27.4214 7.2948,-10.3597 16.1063,-20.2691 26.4407,-29.7148 10.3343,-9.7503 20.9784,-17.8227 31.9206,-24.2214 11.2462,-6.3986 21.4277,-9.5997 30.5462,-9.5997 6.9909,0 11.3967,2.1341 13.2203,6.3998 1.8237,4.2657 2.7309,7.4668 2.7309,9.5997 0,3.9611 1.527,5.9376 4.5666,5.9376 1.2158,0 2.123,-0.2972 2.7308,-0.9065 2.7356,-1.5236 4.1054,-4.576 4.1054,-9.1465 v -1.3688 c -1.2158,-10.0551 -6.0842,-16.9119 -14.5948,-20.5683 -8.2066,-3.9611 -16.5647,-5.9375 -25.0754,-5.9375 -3.9513,0 -7.5982,0.297 -10.9416,0.9065 -3.0395,0.6094 -6.0754,1.3703 -9.115,2.2843 -8.5106,3.0471 -17.7849,8.2336 -27.8152,15.5463 -9.7264,7.3128 -18.9917,15.9976 -27.8062,26.0526 -8.8146,9.7503 -16.1082,19.7991 -21.8833,30.1589 -5.471,10.3597 -8.2107,20.1116 -8.2107,29.2525 0,6.3987 1.8234,12.1885 5.4708,17.3684 3.0396,4.2658 6.5382,7.3183 10.4895,9.1464 3.9513,2.133 8.0517,3.1909 12.3071,3.1909 9.1185,0 18.5409,-2.8949 28.2673,-8.6842 10.0304,-6.094 19.6011,-13.248 28.7195,-21.4748 9.4226,-8.2268 17.1788,-15.3898 23.2578,-21.4838 3.6474,-3.6564 6.9887,-7.006 10.0283,-10.053 3.0396,-3.3517 5.6219,-6.098 7.7496,-8.2309 0.6078,-0.6095 1.0615,-1.2126 1.3654,-1.8221 0.3039,-0.6093 0.9147,-1.2216 1.8266,-1.8311 1.5197,3.6564 2.2788,8.2216 2.2788,13.7062 0,8.5315 -1.6662,18.5895 -5.0097,30.168 -3.0394,11.5785 -7.297,22.852 -12.7682,33.8212 -20.3647,6.7033 -38.9041,12.4931 -55.6214,17.3683 -16.7174,5.1799 -33.2852,10.6636 -49.6985,16.4528 -16.7174,5.7893 -33.4333,12.34 -50.1506,19.6528 -16.7173,7.6174 -33.5906,16.6082 -50.6118,26.9681 -17.6292,10.6643 -30.8466,22.2441 -39.6611,34.7367 -8.8146,12.4926 -13.2204,24.2208 -13.2204,35.1899 0,8.8363 2.8878,15.6931 8.6628,20.5683 5.4711,5.1799 12.4594,8.6872 20.97,10.5153 8.2066,2.1329 16.2592,3.1999 24.162,3.1999 21.8844,-0.3046 43.7743,-5.4913 65.6588,-15.5463 22.1884,-9.7503 43.3101,-23.0002 63.371,-39.7587 20.3646,-16.7584 38.7559,-35.6496 55.1692,-56.6738 16.4134,-21.0242 30.0844,-42.6617 41.0266,-64.9047 30.3951,-7.0081 59.125,-18.2815 86.1766,-33.8212 14.1086,-8.0145 27.3318,-16.7418 39.7425,-26.1341 -3.0316,7.2814 -4.6389,14.7655 -4.6389,22.481 0,9.4456 3.3415,15.8477 10.0283,19.1994 6.9909,3.3516 14.7471,5.022 23.2578,5.022 9.7264,0 19.7505,-1.3732 30.0849,-4.1155 10.3343,-2.7422 18.3869,-5.331 24.162,-7.7686 10.9423,-4.8752 21.5862,-10.665 31.9206,-17.3684 10.3343,-6.7033 19.5995,-13.5601 27.8062,-20.5682 8.5106,-7.0081 15.656,-13.2526 21.4311,-18.7372 0.3121,-0.2964 0.3144,-0.3561 0.6149,-0.6436 0.251,0.074 0.4996,0.065 0.7506,0.1904 0.6079,0 1.3759,-0.1577 2.2878,-0.4624 -0.304,3.0471 -0.7666,6.2482 -1.3745,9.5998 -0.304,3.3517 -0.4522,7.0075 -0.4522,10.9685 0,8.5316 1.518,17.374 4.5575,26.5149 3.3434,9.1409 9.8781,16.1463 19.6045,21.0215 4.2553,2.1329 8.9666,3.6547 14.1337,4.5687 5.4712,0.9141 11.0986,1.3688 16.8736,1.3688 10.0304,0 20.3601,-1.3641 30.9983,-4.1064 10.9422,-2.4376 21.4291,-5.9448 31.4594,-10.5153 16.7172,-7.6174 32.5262,-17.2116 47.4197,-28.7901 13.4639,-10.467 25.7882,-21.3653 37.2649,-32.5793 -6.2061,10.3767 -9.4587,20.6307 -9.4587,30.7482 0,14.016 6.6919,25.2896 20.0657,33.8211 5.1672,3.0471 10.9427,5.3296 17.3258,6.8531 6.3829,1.5236 13.0657,2.2843 20.0566,2.2843 13.3738,0 27.0539,-2.134 41.0356,-6.3998 13.9817,-4.2658 26.4401,-9.4433 37.3824,-15.5372 5.1671,-2.7423 11.5536,-6.7043 19.1523,-11.8841 7.9028,-5.4845 15.9554,-11.1168 24.162,-16.9061 8.2067,-6.0939 15.5003,-12.0413 21.8833,-17.8306 6.6868,-5.7892 11.0927,-10.5121 13.2203,-14.1685 1.2159,-1.5235 1.8267,-3.0452 1.8267,-4.5687 0,-2.1329 -1.0644,-3.1999 -3.1921,-3.1999 -0.6079,0 -1.8205,0.3061 -3.6442,0.9155 -11.8541,10.3598 -25.2287,20.7239 -40.1223,31.0836 -14.8936,10.3598 -30.397,19.4991 -46.5064,27.4213 -15.8055,7.9222 -31.3089,13.4058 -46.5064,16.4529 -3.0396,0.6094 -6.2237,1.0641 -9.5672,1.3688 -3.3434,0.3046 -6.842,0.4623 -10.4895,0.4623 -10.3342,0 -19.7567,-1.6794 -28.2673,-5.0311 -8.2066,-3.6563 -12.6125,-9.7523 -13.2204,-18.2839 0,-5.1798 1.5179,-10.8121 4.5575,-16.906 20.9726,-3.0471 41.3354,-8.2336 61.0922,-15.5463 20.0609,-7.3128 35.8697,-15.6913 47.4198,-25.137 6.6868,-5.1799 11.8517,-10.3574 15.4991,-15.5373 3.6474,-5.4846 5.4708,-11.1168 5.4708,-16.906 0,-5.4847 -1.8234,-10.2074 -5.4708,-14.1685 -3.3435,-4.2658 -10.3317,-6.3998 -20.9699,-6.3998 -6.0791,0 -13.0762,0.9093 -20.979,2.7376 -7.9027,1.8281 -15.7981,4.8807 -23.7008,9.1465 -13.0699,6.7033 -25.5373,15.2304 -37.3915,25.5902 -8.5945,7.5111 -16.0319,15.3536 -22.3896,23.5053 0,-0.065 0.054,-0.1348 0.054,-0.1994 0,-1.8282 -0.7591,-3.0437 -2.2788,-3.6532 -0.3039,0 -0.9147,0.1486 -1.8266,0.4533 -0.9118,0 -1.9763,0.6123 -3.1921,1.8311 -3.9513,3.6564 -10.486,8.9915 -19.6045,15.9996 -9.1185,6.7033 -19.6053,14.0148 -31.4594,21.937 -11.8541,7.6175 -24.1642,14.6228 -36.9302,21.0215 -8.5107,4.2658 -18.0812,8.3854 -28.7195,12.3465 -10.3343,3.6563 -20.2194,5.4842 -29.6419,5.4842 -13.0699,0 -22.1869,-4.2681 -27.354,-12.7996 -4.8633,-8.5316 -7.2975,-18.4319 -7.2975,-29.7057 0,-10.6645 1.3699,-20.1101 4.1054,-28.3369 4.2553,-2.7423 10.1882,-6.2496 17.7869,-10.5153 7.9028,-4.5705 16.5571,-9.9056 25.9796,-15.9996 9.7264,-6.094 20.2132,-13.2479 31.4594,-21.4748 11.5501,-8.5315 23.4068,-17.9771 35.5648,-28.3369 9.7264,-8.5315 20.8241,-18.747 33.2861,-30.6303 12.4619,-11.8833 24.6149,-25.1332 36.469,-39.7587 11.8541,-14.6255 21.7391,-30.1671 29.6419,-46.6208 7.5987,-15.8443 11.3937,-28.9456 11.3937,-39.3054 0,-7.3128 -1.8234,-13.1027 -5.4708,-17.3684 -3.6474,-4.5705 -9.423,-6.8531 -17.3257,-6.8531 z m -6.8363,16.9061 c 2.7356,0 4.8644,0.9185 6.3841,2.7467 1.8237,1.5235 2.7309,4.4184 2.7309,8.6841 0,9.4457 -2.4251,19.6521 -7.2884,30.6213 -4.8632,10.6645 -11.2496,21.4832 -19.1523,32.4524 -7.5988,10.6644 -15.9568,21.0194 -25.0753,31.0745 -8.8146,9.7503 -17.478,18.7413 -25.9886,26.9681 -8.2067,7.9222 -15.1949,14.4728 -20.97,19.6527 -11.2462,10.055 -23.2601,19.8069 -36.026,29.2525 -12.766,9.141 -24.6135,17.2133 -35.5557,24.2214 -10.6383,7.0081 -18.8482,12.1856 -24.6232,15.5372 6.079,-14.9302 14.437,-31.9934 25.0753,-51.1895 10.6382,-19.5007 22.8004,-39.1528 36.4781,-58.9582 13.9817,-20.1101 28.4208,-38.0828 43.3144,-53.9271 9.7264,-10.3598 19.7506,-19.8053 30.0849,-28.3369 10.3344,-8.5316 19.914,-15.3884 28.7286,-20.5683 9.1185,-5.4846 16.4121,-8.2309 21.8832,-8.2309 z m -583.1343,28.7992 c 0.9118,0 1.3655,0.6033 1.3655,1.8221 0,2.1329 -1.6663,4.8792 -5.0096,8.2309 l -8.6629,8.6842 c -3.9514,4.2657 -8.209,8.5339 -12.7683,12.7996 l -12.7682,12.7906 c 5.4711,-7.6174 10.7932,-14.7713 15.9603,-21.4748 5.4712,-6.7033 10.6359,-12.7993 15.4991,-18.2839 2.4316,-3.047 4.5605,-4.5687 6.3841,-4.5687 z m 336.4776,104.6634 c -3.3434,0 -8.2119,0.4547 -14.5949,1.3688 -6.079,0.9141 -11.8546,2.2873 -17.3257,4.1155 -5.1672,1.8281 -8.3514,3.9622 -9.5672,6.3998 -1.2158,2.4376 -1.8266,5.3326 -1.8266,8.6842 0,3.047 0.759,5.6357 2.2788,7.7686 1.5197,1.8282 4.1021,2.7376 7.7495,2.7376 3.6474,0 7.146,-1.3641 10.4895,-4.1064 3.3434,-2.7422 5.9258,-6.1009 7.7496,-10.062 0.6078,-1.8282 2.1259,-3.3499 4.5575,-4.5687 2.7355,-1.5236 5.1697,-2.7392 7.2974,-3.6532 1.5198,-0.6094 2.7324,-1.2216 3.6442,-1.8311 1.2158,-0.6094 2.1321,-1.0641 2.7399,-1.3688 1.5199,-0.9141 2.2788,-1.9811 2.2788,-3.1999 0,-1.5235 -1.8234,-2.2844 -5.4708,-2.2844 z m -783.9809,15.3288 11.7374,60.753 c -15.982,6.3322 -29.0801,17.1213 -39.2814,32.3527 -10.0312,15.0601 -15.2965,31.4863 -15.8065,49.1136 0.34,16.4293 5.4389,30.802 15.3001,43.4663 9.8612,12.493 22.6159,20.8835 38.0877,24.8197 2.8904,-0.6846 4.0783,-1.5465 4.0783,-2.4022 0,-2.396 -1.5261,-4.1017 -4.7565,-4.7863 -9.6911,-4.2785 -17.1787,-10.9551 -22.1093,-20.1966 -4.9306,-9.0703 -7.4783,-17.625 -7.4783,-25.1551 0,-11.9797 4.2509,-23.1076 12.922,-33.2048 8.6711,-9.926 18.0227,-16.426 28.394,-19.3354 l 19.3694,98.4993 c -18.5577,8.7581 -36.9899,16.3642 -55.2598,22.5262 -7.0958,2.3933 -14.1327,4.4109 -21.1417,6.282 -9.0205,-4.7023 -17.2297,-10.7242 -24.578,-18.1207 -9.5212,-9.7549 -16.6614,-20.3628 -21.422,-32.1714 -4.7606,-11.6374 -7.31,-23.7936 -7.6501,-36.2868 0.6801,-27.8956 9.1801,-53.7349 25.6721,-77.5231 16.492,-23.9595 37.7394,-46.7246 63.9226,-68.6304 z m 330.3285,13.0081 c -8.5106,17.6726 -16.5632,35.0421 -24.162,52.1051 -7.2948,17.0632 -13.3758,32.4471 -18.239,46.1585 -3.3434,0.3047 -6.6849,0.4533 -10.0284,0.4533 h -9.115 c -11.8541,0 -20.9711,-0.4547 -27.354,-1.3688 -1.8238,-1.5235 -4.1098,-3.1938 -6.8453,-5.022 -2.4315,-2.1329 -5.3194,-4.2669 -8.6629,-6.3998 18.2371,-14.0161 36.0175,-28.1845 53.3427,-42.5054 17.6291,-14.6255 34.6506,-29.1 51.0639,-43.4209 z m 793.3129,32.9056 c 5.1672,0 8.2122,0.6124 9.1241,1.8312 1.2158,1.2188 1.8175,2.592 1.8175,4.1154 0,1.8282 -0.4536,4.1108 -1.3654,6.8531 -0.9119,2.4376 -2.578,4.8778 -5.0096,7.3154 -5.775,6.3986 -14.4386,12.337 -25.9887,17.8216 -11.55,5.1798 -23.7121,9.7451 -36.4781,13.7061 -12.7659,3.6564 -24.0117,6.7089 -33.7381,9.1465 7.9026,-10.055 17.4823,-19.6583 28.7285,-28.7992 11.5502,-9.4457 23.0924,-17.0633 34.6425,-22.8526 11.55,-6.094 20.9725,-9.1375 28.2673,-9.1375 z m -979.3295,41.5898 h 3.192 c 19.149,1.8282 37.2347,7.0148 54.256,15.5464 l -3.1921,2.7376 c -9.1184,-1.5236 -18.8462,-3.3514 -29.1806,-5.4843 -10.0304,-2.4376 -18.083,-4.7202 -24.162,-6.8531 -1.2158,-0.6094 -2.5857,-1.3703 -4.1054,-2.2843 -1.5197,-0.9142 -2.2787,-1.6749 -2.2787,-2.2844 0,-0.914 1.8234,-1.3779 5.4708,-1.3779 z m -260.5734,9.4547 c -0.6714,5.1005 -1.1887,10.2502 -1.3926,15.4829 0.1701,18.8252 3.7428,36.9685 10.5437,54.2535 6.9708,17.4562 16.6607,32.8572 29.0722,46.5483 8.2651,8.9939 17.4266,16.5323 27.3541,22.9161 -19.9961,4.3251 -39.6723,6.7443 -58.9492,6.7443 -24.62,0 -43.4649,-4.7228 -56.5347,-14.1685 -12.766,-9.4457 -19.1524,-21.3314 -19.1524,-35.6523 0,-12.7974 5.1648,-27.2719 15.4992,-43.4209 10.6382,-16.4537 27.6597,-33.3594 51.0639,-50.7272 0.5753,-0.415 1.8631,-1.5092 2.4958,-1.9762 z m 149.5927,6.7534 c 12.2415,0 22.9512,2.7364 32.4723,8.2128 9.5211,5.4765 17.0051,13.0061 22.6157,22.5898 5.7808,9.4126 9.1763,20.0274 10.7065,31.8359 0,2.1829 -0.2071,4.1742 -0.3075,6.2639 -4.8931,2.8771 -9.779,5.8123 -14.6853,8.5844 -10.6428,6.1105 -21.2254,11.6474 -31.7759,16.9242 z m 250.4999,19.8975 c -1.2158,4.5705 -2.5856,9.2932 -4.1053,14.1684 -1.2158,4.5705 -2.2803,9.2933 -3.1921,14.1685 -0.3039,0.6093 -0.4612,1.3793 -0.4612,2.2934 0,0.6094 -0.1482,1.2127 -0.4521,1.822 -3.0396,-5.7892 -6.5382,-11.4214 -10.4895,-16.906 -3.9514,-5.7892 -7.5982,-10.6696 -10.9416,-14.6308 h 13.2203 c 5.1672,-0.3046 10.6465,-0.6109 16.4215,-0.9155 z m -186.5682,63.2277 c -4.3458,23.8009 -16.7282,40.0983 -37.4095,48.4791 l -4.9735,-24.6928 c 14.0896,-7.3644 28.2184,-15.2939 42.383,-23.7863 z m 393.5548,5.7925 c -10.3344,18.2819 -22.95,36.5607 -37.8435,54.8427 -14.5897,18.5866 -30.6948,35.6498 -48.324,51.1895 -17.6292,15.5396 -36.3258,27.8802 -56.0826,37.0211 -19.4528,9.4457 -39.2048,14.1684 -59.2657,14.1684 -10.3342,0 -18.2387,-2.1341 -23.7098,-6.3998 -5.4712,-4.2657 -8.2108,-9.2947 -8.2108,-15.084 0,-7.3128 3.9522,-16.1461 11.855,-26.5058 7.9027,-10.3598 21.1291,-21.6333 39.6701,-33.8212 25.2279,-16.7584 52.2735,-30.7781 81.1489,-42.0521 28.8753,-10.9691 62.4646,-22.085 100.7624,-33.3588 z m -447.8379,24.1126 4.458,22.6804 c -11.9015,3.0805 -22.9509,4.9629 -33.3222,5.6475 -8.9448,-0.3018 -17.3595,-1.4808 -25.3556,-3.354 13.1116,-5.1685 26.3611,-10.9839 39.7515,-17.5497 4.8098,-2.2812 9.6497,-5.0107 14.4683,-7.4242 z"
     transform="translate(4.6377146e-6,-5.7731551e-5)" /></g></g>&#10;<metadata
   id="metadata1"><rdf:RDF><cc:Work><dc:format>image/svg+xml</dc:format><dc:type
         rdf:resource="http://purl.org/dc/dcmitype/StillImage" /><cc:license
         rdf:resource="http://creativecommons.org/publicdomain/zero/1.0/" /><dc:publisher><cc:Agent
           rdf:about="http://openclipart.org/"><dc:title>Openclipart</dc:title></cc:Agent></dc:publisher><dc:date>2007-02-28T08:24:06</dc:date><dc:description>Three hand drawn treble clefs</dc:description><dc:source>http://openclipart.org/detail/3344/treble-clefs-by-zeimusu-3344</dc:source><dc:creator><cc:Agent><dc:title>zeimusu</dc:title></cc:Agent></dc:creator><dc:subject><rdf:Bag><rdf:li>clef</rdf:li><rdf:li>clip art</rdf:li><rdf:li>clipart</rdf:li><rdf:li>image</rdf:li><rdf:li>media</rdf:li><rdf:li>music</rdf:li><rdf:li>musical note</rdf:li><rdf:li>note</rdf:li><rdf:li>png</rdf:li><rdf:li>public domain</rdf:li><rdf:li>svg</rdf:li><rdf:li>treble</rdf:li></rdf:Bag></dc:subject></cc:Work><cc:License
       rdf:about="http://creativecommons.org/publicdomain/zero/1.0/"><cc:permits
         rdf:resource="http://creativecommons.org/ns#Reproduction" /><cc:permits
         rdf:resource="http://creativecommons.org/ns#Distribution" /><cc:permits
         rdf:resource="http://creativecommons.org/ns#DerivativeWorks" /></cc:License></rdf:RDF></metadata></svg>
