<?xml version="1.0" encoding="UTF-8" standalone="no"?>
<svg
   id="svg2"
   style="image-rendering:optimizeQuality;shape-rendering:geometricPrecision;text-rendering:geometricPrecision"
   fill-rule="evenodd"
   xml:space="preserve"
   viewBox="0 0 887.51 321.38"
   version="1.0"
   sodipodi:docname="zeimusu_treble_clefs_4.svg"
   width="887.51001"
   height="321.38"
   inkscape:version="1.3 (0e150ed6c4, 2023-07-21)"
   xmlns:inkscape="http://www.inkscape.org/namespaces/inkscape"
   xmlns:sodipodi="http://sodipodi.sourceforge.net/DTD/sodipodi-0.dtd"
   xmlns:xlink="http://www.w3.org/1999/xlink"
   xmlns="http://www.w3.org/2000/svg"
   xmlns:svg="http://www.w3.org/2000/svg"
   xmlns:rdf="http://www.w3.org/1999/02/22-rdf-syntax-ns#"
   xmlns:cc="http://creativecommons.org/ns#"
   xmlns:dc="http://purl.org/dc/elements/1.1/"><sodipodi:namedview
   id="namedview1"
   pagecolor="#505050"
   bordercolor="#eeeeee"
   borderopacity="1"
   inkscape:showpageshadow="0"
   inkscape:pageopacity="0"
   inkscape:pagecheckerboard="0"
   inkscape:deskcolor="#505050"
   inkscape:zoom="1.3216752"
   inkscape:cx="648.79781"
   inkscape:cy="143.75695"
   inkscape:window-width="2558"
   inkscape:window-height="1360"
   inkscape:window-x="2553"
   inkscape:window-y="0"
   inkscape:window-maximized="0"
   inkscape:current-layer="Layer 1" />&#10;  <defs
   id="defs4"><linearGradient
   id="linearGradient10"
   inkscape:collect="always"><stop
     style="stop-color:#787878;stop-opacity:0.2;"
     offset="0"
     id="stop10" /><stop
     style="stop-color:#2e1065;stop-opacity:1;"
     offset="1"
     id="stop11" /></linearGradient><linearGradient
   id="linearGradient8"
   inkscape:collect="always"><stop
     style="stop-color:#2e1065;stop-opacity:1;"
     offset="0"
     id="stop8" /><stop
     style="stop-color:#787878;stop-opacity:1;"
     offset="1"
     id="stop9" /></linearGradient><linearGradient
   id="linearGradient6"
   inkscape:collect="always"><stop
     style="stop-color:#3b0764;stop-opacity:1;"
     offset="0"
     id="stop6" /><stop
     style="stop-color:#000700;stop-opacity:1;"
     offset="1"
     id="stop7" /></linearGradient>&#10;    <style
   id="style6"
   type="text/css">&#10;    .str0 {stroke:#131516;stroke-width:3}&#10;    .str1 {stroke:#131516;stroke-width:42}&#10;    .fil1 {fill:none}&#10;    .fil0 {fill:#131516}&#10;  </style>&#10;  <linearGradient
   inkscape:collect="always"
   xlink:href="#linearGradient6"
   id="linearGradient7"
   x1="2433.0854"
   y1="6299.4985"
   x2="2680.0662"
   y2="6299.4985"
   gradientUnits="userSpaceOnUse"
   spreadMethod="reflect"
   gradientTransform="translate(-170.97217,-27.847454)" /><linearGradient
   inkscape:collect="always"
   xlink:href="#linearGradient8"
   id="linearGradient9"
   x1="2331.2391"
   y1="6319.5781"
   x2="3762.3267"
   y2="6319.5781"
   gradientUnits="userSpaceOnUse"
   gradientTransform="translate(-171.18232,-27.813266)" /><linearGradient
   inkscape:collect="always"
   xlink:href="#linearGradient10"
   id="linearGradient11"
   x1="2499.3496"
   y1="6327.3464"
   x2="3928.6797"
   y2="6327.3464"
   gradientUnits="userSpaceOnUse" /></defs>&#10;  <g
   id="Layer 1"
   transform="matrix(0.21599,0,0,0.21546,-250.44,-1202.6)">&#10;    <path
   id="rect9"
   style="display:inline;opacity:1;fill:url(#linearGradient11);stroke:#000000;stroke-width:0;stroke-opacity:0"
   d="m 2499.3496,5977.9219 h 1429.3301 v 698.849 H 2499.3496 Z" />&#10;  <g
   id="g9"
   transform="translate(170.97217,27.847454)"><path
     id="path9"
     d="m 2576.1003,6335.4378 c -10.3713,2.9094 -19.7225,9.4127 -28.3936,19.3387 -8.6711,10.0972 -12.9215,21.2212 -12.9215,33.2009 0,7.5301 2.5503,16.0871 7.4809,25.1574 4.9306,9.2415 12.4115,15.9159 22.1027,20.1944 3.2304,0.6846 4.7606,2.3959 4.7606,4.7919 0,0.8557 -1.1901,1.7113 -4.0805,2.3959 -15.4719,-3.9362 -28.2235,-12.322 -38.0847,-24.8151 -9.8613,-12.6643 -14.9619,-27.0399 -15.3019,-43.4692 0.51,-17.6273 5.7807,-34.0566 15.8119,-49.1168 10.2013,-15.2314 23.2929,-26.0131 39.2749,-32.3453 l -11.7315,-60.7542 c -26.1832,21.9058 -47.4359,44.6672 -63.9279,68.6267 -16.492,23.7882 -24.9931,49.6301 -25.6732,77.5257 0.3401,12.4932 2.8904,24.6441 7.651,36.2815 4.7606,11.8086 11.9015,22.4192 21.4227,32.1741 19.2124,19.3386 44.2054,29.4358 74.6392,30.4627 10.3713,-0.6846 21.4226,-2.5671 33.3241,-5.6476 z m 12.2415,-1.7113 26.5233,131.6056 c 26.1833,-10.6105 39.2749,-33.7143 39.2749,-68.9689 -1.5302,-11.8085 -4.9306,-22.4191 -10.7114,-31.8318 -5.6106,-9.5837 -13.0916,-17.1138 -22.6128,-22.5903 -9.5211,-5.4764 -20.2325,-8.2146 -32.474,-8.2146 z m -34.8543,-177.9843 c 5.6106,-3.4228 12.0715,-9.4126 19.0424,-17.7984 6.9708,-8.2147 13.7717,-17.9696 20.2324,-28.9224 6.6309,-11.1241 11.9015,-22.4192 15.812,-33.8855 3.9105,-11.2952 5.7807,-22.0769 5.7807,-32.003 0,-4.2784 -0.34,-8.5569 -1.1901,-12.3219 -0.6801,-6.161 -2.5504,-10.9529 -5.7807,-14.2046 -3.2304,-3.0805 -7.311,-4.7918 -12.4116,-4.7918 -10.2012,0 -19.3824,6.3321 -27.5434,18.9964 -6.2908,10.9528 -11.5615,23.9594 -15.3019,38.6773 -3.9105,14.8891 -6.1208,29.607 -6.4608,44.4961 0.8501,16.9427 3.5705,30.8049 7.821,41.7578 z m -10.7114,9.926 c -7.6509,-27.7244 -11.9015,-55.9623 -12.7515,-84.7136 0.17,-18.483 2.0402,-35.768 5.6107,-51.855 3.4003,-16.0871 8.331,-29.9493 14.7918,-41.929 6.2908,-11.9797 13.6017,-21.0501 21.7627,-27.211 7.3109,-5.4765 12.5816,-8.3859 15.4719,-8.3859 2.2103,0 4.0805,0.8557 5.7807,2.396 1.7002,1.5402 3.9105,4.1073 6.6308,7.5301 20.2326,28.9224 30.4339,63.8347 30.4339,104.5657 0,19.3387 -2.5504,38.1639 -7.651,56.9892 -4.9307,18.6541 -12.2416,36.4526 -21.9327,53.053 -9.8613,16.7716 -21.4227,31.3184 -34.8544,43.8115 l 13.7718,67.4287 c 7.4809,-0.8557 12.5815,-1.5403 15.4719,-1.5403 12.9216,0 24.483,2.7383 35.1944,8.2147 10.7112,5.4764 19.8924,12.8354 27.3734,22.248 7.4808,9.2415 13.2616,19.8521 17.3421,31.8318 3.9105,11.9797 6.1207,24.4728 6.1207,37.4794 0,20.1943 -5.2706,38.6774 -15.8119,55.2778 -10.5413,16.6004 -26.3533,28.7513 -47.606,36.6237 1.3602,8.3858 3.7405,20.5366 7.311,36.1102 3.4004,15.7448 5.9507,28.2379 7.6509,37.4794 1.7003,9.2415 2.3803,18.1407 2.3803,26.8688 0,13.52 -3.2304,25.4997 -9.6912,36.1103 -6.6308,10.6106 -15.4719,18.8252 -26.6933,24.6439 -11.0514,5.8188 -23.2929,8.7281 -36.5546,8.7281 -18.7023,0 -35.0243,-5.3053 -48.966,-15.7447 -13.9418,-10.6106 -21.4227,-24.8151 -22.1028,-42.9559 0.5101,-8.0435 2.3804,-15.5736 5.7807,-22.7614 3.4005,-7.1879 7.9911,-13.0065 13.9418,-17.4562 5.7807,-4.6207 12.7516,-7.0167 20.7425,-7.5301 6.6309,0 12.9217,1.8826 18.8724,5.4765 5.7807,3.765 10.5413,8.728 14.1118,15.0602 3.4004,6.3321 5.2706,13.3488 5.2706,20.8789 0,10.0972 -3.4004,18.6541 -10.2012,25.6708 -6.8009,7.0167 -15.4719,10.6106 -25.8433,10.6106 h -3.9104 c 6.6308,10.2683 17.5121,15.5737 32.644,15.5737 7.651,0 15.4719,-1.7115 23.2929,-4.792 7.991,-3.2516 14.6218,-7.5301 20.2325,-13.0065 5.6107,-5.4764 9.3512,-11.2951 10.8813,-17.4562 2.8904,-7.0166 4.2506,-16.7715 4.2506,-28.9224 0,-8.2147 -0.8501,-16.4293 -2.3803,-24.644 -1.5302,-8.0435 -3.9105,-18.8252 -7.1409,-32.174 -3.2304,-13.1777 -5.6107,-23.446 -6.9709,-30.4627 -10.2012,2.5671 -20.7425,3.9362 -31.7939,3.9362 -18.5323,0 -36.0445,-3.7651 -52.5365,-11.4663 -16.4921,-7.7013 -30.9438,-18.3119 -43.5255,-32.003 -12.4115,-13.6911 -22.1027,-29.0935 -29.0735,-46.5497 -6.8009,-17.285 -10.3713,-35.4257 -10.5414,-54.2509 0.6801,-17.4562 3.9105,-34.2278 10.0313,-49.9725 6.1208,-15.916 13.9417,-30.9761 23.6329,-45.0095 9.6912,-14.0334 19.7225,-26.8688 30.0937,-38.3351 10.5414,-11.2952 24.3131,-25.8419 41.6552,-43.4693 z"
     stroke="#131516"
     stroke-width="53.022"
     class="fil0 str0"
     fill="#131516"
     style="mix-blend-mode:screen;fill:url(#linearGradient7);fill-opacity:1;fill-rule:evenodd;stroke:#000000;stroke-opacity:0" /><path
     style="font-weight:500;font-size:456.487px;font-family:WindSong;-inkscape-font-specification:'WindSong, Medium';letter-spacing:0px;mix-blend-mode:color-dodge;fill:url(#linearGradient9);stroke-width:0"
     d="m 2409.2983,6490.076 q -37.4319,0 -57.9738,-17.803 -20.0854,-17.3465 -20.0854,-44.7358 0,-26.9327 19.1724,-57.5173 19.629,-30.5847 58.8868,-58.4304 21.4549,-15.064 41.9969,-23.2808 20.9984,-8.2168 38.3449,-9.5862 5.9343,0 8.2167,1.8259 0.4565,0.4565 0.913,1.826 0.4565,1.3694 -0.4565,2.7389 -0.913,0.913 -2.2824,1.3695 -0.913,0 -2.2825,0.4564 -16.89,1.826 -35.6059,11.4122 -18.716,9.1298 -37.432,22.8244 -35.1495,26.0197 -51.1265,50.67 -15.5206,24.1938 -15.5206,43.3663 0,21.4549 19.1725,35.606 19.6289,14.1511 56.6044,14.1511 46.1051,0 94.9493,-16.4336 48.8441,-16.4335 99.0576,-45.1922 50.2136,-28.3022 99.5142,-63.9082 -16.89,-3.1954 -34.693,-7.3037 -17.803,-4.5649 -28.3022,-10.9557 -5.9343,-3.6519 -10.0427,-8.2168 -4.1084,-4.5649 -4.1084,-9.5862 0,-3.6519 2.7389,-7.7603 3.6519,-4.1084 9.1298,-5.9343 5.9343,-1.826 12.3251,-1.826 11.8687,0 26.4763,4.1084 15.064,3.6519 30.1281,10.0427 15.5206,6.3908 28.3022,13.2381 35.1495,-27.3892 68.473,-57.0608 33.7801,-29.6717 65.7342,-59.3434 5.0213,-10.4992 10.4992,-20.5419 5.9343,-10.0427 11.8686,-19.6289 5.0214,-7.7603 12.7817,-20.5419 7.7602,-13.2381 17.3465,-25.5633 9.5862,-12.7816 20.9984,-22.3679 11.8686,-10.0427 24.1938,-11.4121 8.2168,-0.913 11.8686,4.1084 4.1084,4.5648 4.1084,10.4992 0,12.7816 -7.3038,23.2808 -7.3038,10.0427 -16.4335,19.1724 -26.4762,26.0198 -57.5174,53.409 -20.9984,35.606 -39.2578,73.9509 -18.2595,37.8884 -28.7587,68.9296 28.3022,-3.1955 46.5617,-10.9557 18.7159,-8.2168 17.3465,-23.7374 0,-6.8473 5.0213,-6.8473 3.1954,0 5.4779,2.739 2.2824,2.7389 2.2824,6.8473 0,13.2381 -12.3251,21.9113 -11.8687,8.6733 -30.5847,13.6946 -18.2595,5.0214 -37.4319,7.7603 -2.7389,9.5863 -5.0214,18.2595 -2.2824,8.6733 -3.1954,16.4335 0,2.739 0,5.9344 0.4565,2.7389 0.913,5.4778 0.913,2.7389 1.3695,4.5649 0.4564,1.8259 0.4564,2.7389 1.826,7.7603 -5.4778,13.6946 -6.8473,5.9343 -14.1511,5.9343 -7.7603,0 -9.5862,-6.8473 -0.4565,-1.3694 -0.4565,-2.7389 0,-1.3694 -0.4565,-2.2824 -2.7389,-6.3908 -8.6733,-15.9771 -5.9343,-9.1297 -12.7816,-18.2594 -6.8473,-9.1298 -12.3251,-15.5206 -5.4779,-6.8473 -7.3038,-7.3038 -0.913,-0.4565 -6.8473,-1.3695 -5.9344,-1.3694 -14.1511,-2.2824 -3.1954,-0.913 -6.8473,-1.3694 -3.6519,-0.4565 -7.3038,-0.913 -41.9968,30.5846 -84.9066,57.5173 -42.9098,26.9328 -85.3631,47.0182 -41.9968,20.5419 -82.1676,31.9541 -40.1709,11.8687 -76.6899,11.8687 z m 540.4807,-343.2783 q 6.3908,-6.3908 12.7816,-12.7816 6.8473,-6.3908 12.7816,-12.7816 3.6519,-3.6519 8.6733,-8.6733 5.0213,-5.0214 5.0213,-8.2168 0,-1.8259 -1.3694,-1.8259 -2.7389,0 -6.3908,4.5649 -7.3038,8.2167 -15.5206,18.2594 -7.7603,10.0428 -15.977,21.4549 z m -141.0545,187.1597 q 4.5648,0 9.1297,0 5.0214,0 10.0427,-0.4565 7.3038,-20.5419 18.2595,-46.1052 11.4122,-25.5632 24.1938,-52.0395 -24.6503,21.4549 -51.1265,43.3663 -26.0198,21.4549 -53.409,42.4533 5.0214,3.1954 8.6732,6.3908 4.1084,2.7389 6.8474,5.0213 9.5862,1.3695 27.3892,1.3695 z m -70.299,-5.9343 3.1954,-2.739 q -25.5633,-12.7816 -54.322,-15.5205 h -3.1954 q -5.4778,0 -5.4778,1.3694 0,0.913 2.2824,2.2825 2.2824,1.3694 4.1084,2.2824 9.1297,3.1954 24.1938,6.8473 15.5206,3.1954 29.2152,5.4779 z m 77.1463,50.2135 q 0.4565,-0.9129 0.4565,-1.8259 0,-1.3695 0.4565,-2.2824 1.3694,-7.3038 3.1954,-14.1511 2.2824,-7.3038 4.1083,-14.1511 -8.6732,0.4564 -16.4335,0.9129 -7.3038,0 -13.2381,0 5.0213,5.9344 10.9557,14.6076 5.9343,8.2168 10.4992,16.89 z m 19.6294,204.0497 q -11.8687,0 -24.1938,-3.1954 -12.7817,-2.7389 -20.9984,-10.4992 -8.6733,-7.3038 -8.6733,-20.5419 0,-16.4335 13.2381,-35.1495 13.2381,-18.716 39.7144,-34.693 25.5633,-15.5206 50.67,-26.9327 25.1068,-10.9557 50.2136,-19.629 24.6503,-8.6732 49.7571,-16.4335 25.1068,-7.3038 55.6914,-17.3465 8.2168,-16.4336 12.7816,-33.7801 5.0214,-17.3465 5.0214,-30.1281 0,-8.2168 -2.2824,-13.6946 -1.3695,0.913 -1.826,1.8259 -0.4565,0.913 -1.3694,1.826 -3.1954,3.1954 -7.7603,8.2168 -4.5649,4.5648 -10.0427,10.0427 -9.1298,9.1297 -23.2809,21.4549 -13.6946,12.3251 -28.7586,21.4548 -14.6076,8.6733 -28.3022,8.6733 -6.3909,0 -12.3252,-3.1954 -5.9343,-2.7389 -10.4992,-9.1298 -5.4778,-7.7602 -5.4778,-17.3465 0,-13.6946 8.2167,-29.2151 8.6733,-15.5206 21.9114,-30.1282 13.2381,-15.064 27.8457,-26.0197 15.0641,-10.9557 27.8457,-15.5206 4.5649,-1.3694 9.1298,-2.2824 5.0213,-0.913 10.9556,-0.913 12.7817,0 25.1068,5.9343 12.7817,5.4779 14.6076,20.542 v 1.3694 q 0,6.8473 -4.1084,9.1298 -0.9129,0.9129 -2.7389,0.9129 -4.5649,0 -4.5649,-5.9343 0,-3.1954 -2.7389,-9.5862 -2.7389,-6.3908 -13.2381,-6.3908 -13.6946,0 -30.5846,9.5862 -16.4336,9.5862 -31.9541,24.1938 -15.5206,14.1511 -26.4763,29.6716 -10.4992,15.5206 -12.3251,27.3893 -0.4565,1.8259 -0.4565,3.1954 0,1.3694 0,2.2824 0,6.8473 2.2824,9.1297 2.739,1.826 5.4779,1.826 6.8473,0 15.977,-5.4778 9.5862,-5.4779 17.803,-11.8687 8.6733,-6.8473 12.7816,-10.0427 11.8687,-10.0427 24.1939,-20.9984 12.7816,-10.9557 25.5632,-21.9114 -0.4565,-0.913 -0.4565,-2.7389 0,-2.2825 0.913,-4.1084 2.2825,-3.6519 6.3908,-5.9343 4.1084,-2.2825 11.4122,-2.2825 10.0427,0 14.6076,7.7603 4.5649,7.7603 4.5649,20.5419 0,11.4122 -3.6519,27.3892 -3.6519,15.5206 -11.4122,34.2366 43.3663,-15.9771 77.1463,-34.2366 33.78,-18.2594 53.409,-36.5189 2.7389,-2.7389 8.2167,-7.7603 5.9344,-5.0214 11.8687,-9.5862 3.1954,-2.2825 5.4778,-4.1084 2.739,-2.2824 4.5649,-3.6519 2.7389,-1.826 3.6519,-1.826 4.1084,-1.8259 4.1084,2.2825 0,2.7389 -3.6519,8.6732 -3.6519,5.4779 -14.6076,16.4336 -31.4976,31.0411 -72.5814,54.3219 -40.6274,23.2809 -86.2761,33.7801 -16.4335,33.3235 -41.0838,64.8211 -24.6503,31.4976 -55.2349,56.6044 -30.1282,25.1068 -63.4517,39.7144 -32.8671,15.064 -65.7341,15.5205 z m -5.9344,-10.4992 q 30.1282,0 59.3433,-14.1511 29.6717,-13.6946 56.1479,-36.9754 26.4763,-23.2809 48.3877,-51.1266 22.3678,-27.3892 37.8884,-54.7784 -57.5174,16.89 -100.8836,33.3235 -43.3663,16.8901 -81.2547,41.9969 -27.8457,18.2594 -39.7144,33.78 -11.8687,15.5205 -11.8687,26.4762 0,8.6733 8.2168,15.0641 8.2168,6.3908 23.7373,6.3908 z m 461.965,-333.692 q -5.4779,0 -7.7603,-2.7389 -2.2824,-3.1954 -2.2824,-7.7603 0,-5.0213 1.8259,-8.6732 1.826,-3.6519 9.5862,-6.3908 8.2168,-2.739 17.3466,-4.1084 9.5862,-1.3695 14.6075,-1.3695 5.4779,0 5.4779,2.2824 0,1.826 -2.2825,3.1955 -0.9129,0.4564 -2.7389,1.3694 -1.3694,0.913 -3.6519,1.826 -3.1954,1.3694 -7.3038,3.6519 -3.6519,1.8259 -4.5648,4.5648 -2.739,5.9344 -7.7603,10.0427 -5.0214,4.1084 -10.4992,4.1084 z m -75.7769,154.2926 q -12.7816,0 -23.2808,-5.0213 -10.0427,-5.0214 -10.0427,-19.1725 0,-13.6946 6.3908,-26.4762 6.3908,-12.7817 15.9771,-24.1938 10.0427,-11.4122 19.1724,-20.0855 7.7603,-6.8473 12.3252,-10.9556 -0.4565,-0.4565 -0.4565,-1.826 0,-3.6519 3.1954,-7.3038 5.0213,-7.3038 16.4335,-12.3251 2.7389,-0.913 5.4779,-0.913 5.9343,0 11.8686,2.7389 5.9343,2.2824 5.9343,7.7603 0,3.1954 -2.2824,5.9343 -2.2824,2.7389 -4.1084,4.1084 -3.6519,2.7389 -11.4121,9.5862 -7.3038,6.3908 -15.9771,15.0641 -8.6732,8.2168 -16.89,16.4335 -7.7603,7.7603 -11.8687,13.2382 -15.977,20.5419 -15.977,31.0411 0,4.5648 3.6519,7.7603 4.1084,2.7389 14.1511,2.7389 15.977,0 31.4976,-5.0214 15.977,-5.4778 29.2151,-12.3251 10.9557,-5.4779 20.542,-12.3252 10.0427,-6.8473 19.6289,-14.1511 9.5862,-7.7603 19.1725,-15.977 10.0427,-8.2168 20.0854,-16.4336 1.3694,-0.4564 3.1954,-0.4564 3.6519,0 3.6519,3.1954 0,2.7389 -2.2824,5.0213 -2.739,3.6519 -11.4122,11.8687 -8.6733,8.2168 -21.4549,18.716 -12.3252,10.4992 -27.8457,20.5419 -15.5206,10.0427 -31.9541,17.3465 -8.6733,3.6519 -24.1938,7.7603 -15.5206,4.1083 -30.1282,4.1083 z m 192.6379,4.5649 q -8.6732,0 -16.89,-1.3695 -7.7603,-1.3694 -14.1511,-4.5648 -14.6076,-7.3038 -19.6289,-20.9984 -4.5649,-13.6946 -4.5649,-26.4763 0,-5.9343 0.4565,-10.9557 0.913,-5.0213 1.3695,-9.5862 -1.3695,0.4565 -2.2825,0.4565 -0.913,-0.4565 -1.8259,-0.4565 -4.1084,-0.913 -4.1084,-3.6519 0,-2.2824 2.2824,-4.1084 1.3695,-0.9129 4.1084,-3.1954 3.1954,-2.7389 5.0214,-4.5648 3.6519,-12.3252 10.9557,-31.4976 7.3037,-19.1725 20.5419,-41.5404 10.0427,-16.89 25.1068,-39.7143 15.064,-22.8244 34.2365,-46.5617 19.1724,-24.1938 40.6273,-44.7357 21.4549,-20.9984 43.8228,-33.7801 22.8243,-12.7816 45.1922,-12.7816 11.8686,0 17.3465,6.8473 5.4778,6.3908 5.4778,17.3465 0,15.5206 -11.4121,39.2579 -11.8687,24.6503 -29.6717,46.5617 -17.803,21.9113 -36.519,39.7143 -18.7159,17.803 -33.3235,30.5847 -18.2595,15.5205 -35.606,28.3021 -16.89,12.3252 -31.4976,21.4549 -14.1511,9.1298 -26.0198,15.9771 -11.4121,6.3908 -17.8029,10.4992 -4.1084,12.3251 -4.1084,28.3022 0,16.89 7.3038,29.6716 7.7602,12.7817 27.3892,12.7817 14.1511,0 29.6716,-5.4779 15.9771,-5.9343 28.7587,-12.3251 19.1725,-9.5863 36.9755,-20.9984 17.803,-11.8687 31.4976,-21.9114 13.6946,-10.4992 19.6289,-15.977 1.826,-1.826 3.1954,-1.826 1.3695,-0.4565 1.826,-0.4565 2.2824,0.913 2.2824,3.6519 0,4.1084 -4.5649,8.6733 -18.7159,18.7159 -41.0838,36.0624 -22.3679,17.3465 -47.4746,28.7587 -15.0641,6.8473 -31.4977,10.4992 -15.977,4.1084 -31.0411,4.1084 z m -22.3678,-102.2531 q 8.6732,-5.0213 24.6503,-15.5205 16.4335,-10.4992 35.606,-24.1939 19.1724,-14.151 36.0624,-29.2151 8.6733,-7.7603 20.9984,-19.629 12.7817,-12.3251 26.0198,-26.9327 13.6946,-15.0641 25.1068,-31.0411 11.8686,-16.4335 19.1724,-32.4106 7.3038,-16.4335 7.3038,-30.5846 0,-6.3908 -2.7389,-8.6733 -2.2824,-2.7389 -6.3908,-2.7389 -8.2168,0 -21.9114,8.2168 -13.2381,7.7603 -28.7587,20.5419 -15.5205,12.7816 -30.1281,28.3022 -22.3679,23.7373 -43.3663,53.8655 -20.5419,29.6716 -36.5189,58.8868 -15.9771,28.7587 -25.1068,51.1265 z m 217.7442,99.9707 q -10.4992,0 -20.0854,-2.2825 -9.5863,-2.2824 -17.3465,-6.8473 -20.0855,-12.7816 -20.0855,-33.78 0,-16.4335 10.9557,-33.3236 11.4122,-17.3465 29.2152,-32.867 17.803,-15.5206 37.4319,-25.5633 11.8687,-6.3908 23.7373,-9.1297 11.8687,-2.739 20.9985,-2.739 15.977,0 20.9984,6.3909 5.4778,5.9343 5.4778,14.1511 0,8.6732 -5.4778,16.89 -5.4779,7.7603 -15.5206,15.5205 -17.3465,14.1511 -47.4747,25.1068 -29.6716,10.9557 -61.1692,15.5206 -4.5649,9.1297 -4.5649,16.89 0.913,12.7816 13.2381,18.2595 12.7817,5.0213 28.3022,5.0213 5.4779,0 10.4992,-0.4565 5.0214,-0.4564 9.5863,-1.3694 22.8243,-4.5649 46.5616,-16.4335 24.1938,-11.8687 46.5617,-27.3893 22.3679,-15.5205 40.1709,-31.0411 2.7389,-0.913 3.6519,-0.913 3.1954,0 3.1954,3.1955 0,2.2824 -1.826,4.5648 -3.1954,5.4779 -13.2381,14.1511 -9.5862,8.6733 -21.9114,17.803 -12.3251,8.6733 -24.1938,16.89 -11.4122,7.7603 -19.1724,11.8687 -16.4336,9.1297 -37.432,15.5206 -20.9984,6.3908 -41.0838,6.3908 z m -30.5846,-65.7342 q 14.6076,-3.6519 33.78,-9.1297 19.1725,-5.9343 36.519,-13.6946 17.3465,-8.2168 26.0197,-17.803 3.6519,-3.6519 5.0214,-7.3038 1.3694,-4.1084 1.3694,-6.8473 0,-2.2824 -1.8259,-4.1084 -1.3695,-1.8259 -9.1297,-1.8259 -10.9557,0 -28.3022,9.1297 -17.3465,8.6733 -34.6931,22.8244 -16.89,13.6946 -28.7586,28.7586 z"
     id="text1"
     transform="scale(0.99877231,1.0012292)"
     aria-label="Agile" /></g></g>&#10;<metadata
   id="metadata1"><rdf:RDF><cc:Work><dc:format>image/svg+xml</dc:format><dc:type
         rdf:resource="http://purl.org/dc/dcmitype/StillImage" /><cc:license
         rdf:resource="http://creativecommons.org/publicdomain/zero/1.0/" /><dc:publisher><cc:Agent
           rdf:about="http://openclipart.org/"><dc:title>Openclipart</dc:title></cc:Agent></dc:publisher><dc:title>treble clefs</dc:title><dc:date>2007-02-28T08:24:06</dc:date><dc:description>Three hand drawn treble clefs</dc:description><dc:source>http://openclipart.org/detail/3344/treble-clefs-by-zeimusu-3344</dc:source><dc:creator><cc:Agent><dc:title>zeimusu</dc:title></cc:Agent></dc:creator><dc:subject><rdf:Bag><rdf:li>clef</rdf:li><rdf:li>clip art</rdf:li><rdf:li>clipart</rdf:li><rdf:li>image</rdf:li><rdf:li>media</rdf:li><rdf:li>music</rdf:li><rdf:li>musical note</rdf:li><rdf:li>note</rdf:li><rdf:li>png</rdf:li><rdf:li>public domain</rdf:li><rdf:li>svg</rdf:li><rdf:li>treble</rdf:li></rdf:Bag></dc:subject></cc:Work><cc:License
       rdf:about="http://creativecommons.org/publicdomain/zero/1.0/"><cc:permits
         rdf:resource="http://creativecommons.org/ns#Reproduction" /><cc:permits
         rdf:resource="http://creativecommons.org/ns#Distribution" /><cc:permits
         rdf:resource="http://creativecommons.org/ns#DerivativeWorks" /></cc:License></rdf:RDF></metadata></svg>
